<svg width="315" height="201" viewBox="0 0 315 201" fill="none" xmlns="http://www.w3.org/2000/svg">
<path fill-rule="evenodd" clip-rule="evenodd" d="M0 3.18375V200.577H49.8803V100.288C49.8803 81.9817 54.1029 67.7875 62.5483 57.7056C70.9936 47.3584 82.8698 42.1848 98.177 42.1848C111.637 42.1848 121.93 45.8992 129.055 53.3279C136.445 60.7567 140.14 71.8998 140.14 86.7574V139.808L189.483 127.083C189.652 127.927 189.831 128.755 190.02 129.565V108.6C189.456 108.384 188.895 108.165 188.337 107.944C177.382 103.351 168.593 97.0986 161.969 89.1879C155.345 81.2771 152.034 71.0696 152.034 58.5655C152.034 42.7712 156.846 30.101 166.469 20.5548C162.617 16.8232 158.327 13.5534 153.6 10.7452C142.251 3.58172 128.923 0 113.616 0C95.9337 0 82.7379 3.18376 74.0286 9.55127C65.3194 15.6535 59.3813 22.1536 56.2143 29.0518H49.0885V3.18375H0ZM190.02 193.014C184.179 190.705 178.777 187.867 173.816 184.5C158.406 174.044 143.913 160.462 140.14 141.324V200.577H190.02V193.014Z" fill="white"/>
<path d="M142.774 141.711L187.591 130.153C189.46 138.151 192.337 144.708 196.321 149.696L196.344 149.725L196.368 149.753C200.967 155.173 206.54 159.127 213.063 161.577L213.12 161.598L213.179 161.617C219.819 163.745 226.957 164.799 234.577 164.799C245.979 164.799 254.891 162.869 260.871 158.59L260.903 158.568L260.933 158.544C266.8 154.067 269.942 148.399 269.942 141.629C269.942 134.883 266.935 129.619 261.125 126.112C255.603 122.529 247.065 119.787 235.79 117.733L235.782 117.732L225.098 115.821C211.998 113.297 200.062 109.896 189.282 105.629C178.65 101.167 170.214 95.1387 163.887 87.5828C157.716 80.212 154.535 70.6119 154.535 58.5653C154.535 40.3794 161.109 26.761 174.136 17.3367L174.148 17.3279L174.16 17.3189C187.37 7.51731 204.887 2.5 226.935 2.5C247.707 2.5 264.767 7.13506 278.273 16.2361C291.102 24.8809 299.664 36.002 304.071 49.636L264.291 61.8965C261.967 53.0944 257.679 46.451 251.232 42.3105C244.619 37.9008 236.468 35.778 226.935 35.778C217.544 35.778 209.969 37.4622 204.541 41.166C199.02 44.6745 196.156 49.7917 196.156 56.2687C196.156 63.2381 199.136 68.6607 205.011 72.1915L205.051 72.2157L205.093 72.2384C210.518 75.2274 217.691 77.4608 226.499 79.0178L237.194 80.9308C251.336 83.4603 264.049 86.8683 275.346 91.1431L275.377 91.1548L275.408 91.1657C286.788 95.1304 295.548 100.9 301.828 108.401L301.856 108.434L301.885 108.466C308.244 115.543 311.563 125.347 311.563 138.184C311.563 157.387 304.607 172.05 290.778 182.502C277.075 192.796 258.428 198.077 234.577 198.077C210.22 198.077 190.495 192.796 175.221 182.431C160.195 172.235 146.614 159.395 142.774 141.711Z" stroke="white" stroke-width="5"/>
</svg>
