<?xml version="1.0" standalone="no"?>
<!DOCTYPE svg PUBLIC "-//W3C//DTD SVG 20010904//EN"
 "http://www.w3.org/TR/2001/REC-SVG-20010904/DTD/svg10.dtd">
<svg version="1.0" xmlns="http://www.w3.org/2000/svg"
 width="437.000000pt" height="437.000000pt" viewBox="0 0 437.000000 437.000000"
 preserveAspectRatio="xMidYMid meet">
<metadata>
Created by potrace 1.14, written by Peter Selinger 2001-2017
</metadata>
<g transform="translate(0.000000,437.000000) scale(0.100000,-0.100000)"
fill="#000000" stroke="none">
<path d="M530 3694 c-202 -43 -381 -192 -471 -390 -60 -131 -59 -114 -59
-1119 0 -1025 -1 -995 68 -1140 90 -187 269 -328 471 -371 102 -21 3194 -20
3296 1 206 44 385 191 476 391 60 131 59 114 59 1119 0 1025 1 995 -68 1140
-90 187 -269 328 -471 371 -98 20 -3205 19 -3301 -2z m1469 -529 c86 -21 178
-66 257 -126 36 -27 67 -49 70 -49 3 0 24 15 47 34 216 174 633 217 940 98
135 -52 257 -149 330 -260 51 -79 92 -171 80 -182 -4 -4 -100 -36 -213 -70
-113 -35 -211 -65 -217 -67 -8 -3 -13 3 -13 14 0 35 -61 142 -98 173 -66 54
-133 74 -257 74 -103 0 -115 -2 -170 -29 -77 -38 -105 -79 -105 -150 0 -109
75 -161 290 -202 422 -80 601 -147 728 -273 116 -115 158 -290 117 -485 -50
-235 -236 -395 -530 -456 -175 -37 -463 -23 -633 30 l-62 19 0 -39 0 -39 -247
2 -248 3 -5 640 c-5 591 -6 644 -24 690 -49 135 -141 213 -284 244 -218 46
-431 -48 -522 -232 -65 -132 -63 -115 -69 -757 l-6 -585 -247 -3 -248 -2 0
990 0 990 245 0 245 0 0 -130 0 -130 38 0 c32 0 41 5 50 25 17 37 90 113 154
161 62 46 148 79 243 94 82 12 286 4 364 -15z"/>
<path d="M2755 3130 c-211 -33 -393 -141 -468 -278 -75 -137 -75 -351 -1 -478
34 -57 120 -135 198 -179 92 -51 276 -108 482 -149 269 -53 350 -90 394 -182
33 -66 25 -157 -17 -216 -62 -87 -170 -128 -333 -128 -171 0 -271 33 -362 118
-55 51 -90 106 -114 176 -9 26 -21 45 -28 43 -6 -2 -95 -26 -198 -52 -111 -28
-188 -53 -188 -60 0 -35 71 -147 139 -218 168 -176 359 -263 631 -288 299 -27
561 43 711 191 104 102 149 217 149 378 0 304 -193 448 -741 552 -90 17 -192
40 -226 51 -124 40 -182 110 -183 217 0 141 121 226 325 226 189 0 321 -75
379 -216 l16 -36 82 25 c271 83 263 80 260 99 -7 35 -63 123 -113 179 -87 95
-212 167 -359 206 -86 24 -335 34 -435 19z"/>
<path d="M2562 1978 c3 -121 4 -126 41 -201 44 -89 101 -141 194 -179 51 -20
75 -23 208 -23 141 0 153 2 206 26 82 39 122 98 121 180 -2 114 -85 161 -385
220 -138 27 -304 69 -370 95 -18 6 -18 0 -15 -118z"/>
</g>
</svg>
